<svg height="423.30771" width="431.1398" xmlns="http://www.w3.org/2000/svg" xmlns:xlink="http://www.w3.org/1999/xlink"><linearGradient id="a" gradientTransform="scale(.89016742 1.1233842)" gradientUnits="userSpaceOnUse" x1="324.27328" x2="324.27328" y1="262.01294" y2="414.33261"><stop offset="0" stop-color="#00842c"/><stop offset=".13" stop-color="#00842c"/><stop offset=".48" stop-color="#52a222"/><stop offset=".74" stop-color="#a3c400"/><stop offset=".99" stop-color="#eadf00"/><stop offset="1" stop-color="#eadf00"/></linearGradient><linearGradient id="b" gradientTransform="scale(.77820132 1.2850145)" gradientUnits="userSpaceOnUse" x1="215.83235" x2="215.83235" y1="173.63391" y2="362.17776"><stop offset="0" stop-color="#00842c"/><stop offset=".35" stop-color="#007126"/><stop offset="1" stop-color="#005d1f"/></linearGradient><linearGradient id="c" gradientTransform="scale(.86202469 1.1600596)" gradientUnits="userSpaceOnUse" x1="349.33212" x2="492.13754" y1="258.38406" y2="258.38406"><stop offset="0" stop-color="#73b61c"/><stop offset=".45" stop-color="#b6cb00"/><stop offset="1" stop-color="#eadf00"/></linearGradient><linearGradient id="d" gradientTransform="scale(1.5937679 .62744394)" gradientUnits="userSpaceOnUse" x1="106.70987" x2="106.70987" y1="309.28659" y2="469.0701"><stop offset="0" stop-color="#f8a600"/><stop offset=".15" stop-color="#fcb900"/><stop offset=".53" stop-color="#ffcb00"/><stop offset="1" stop-color="#ffdc00"/></linearGradient><g transform="translate(-82.0942 -194.06)"><path d="m314.7096 294.3412h-.0235c-16.3852 28.6839-26.0286 63.6321-26.0286 101.3887 0 24.7663 4.4869 48.317 12.4555 69.6953.0137.0165.0199.0295.0199.0295.0208-.013.0208-.013.0208-.0295 0-.007 0-.007-.0208-.007 15.6955-111.7969 105.7275-158.279 122.9269-165.5762.0459-.0165.1273-.0528.1749-.0812.2335-.0891-2.7245.4439-9.1306.9751-8.3094.6911-22.4191 1.3818-42.8871.7154-16.5063-.5329-37.2668-2.5298-57.5074-7.1101z" fill="url(#a)"/><path d="m168.3373 248.3904c1.7529 21.3834 10.2362 70.3935 35.9258 113.9237 20.2136 34.1979 49.3103 71.2389 96.8499 103.0896-7.9686-21.3835-12.4555-44.936-12.4555-69.6929 0-37.7669 9.6434-72.7176 26.0286-101.3956-7.9053-1.8005-16.0286-3.8113-24.2861-6.0512-70.6697-19.25-124.4237-47.8015-120.0839-63.78.1375-.4812.3286-.9337.5449-1.3619-2.1967 2.7323-3.6155 11.9647-2.5237 25.2683z" fill="url(#b)"/><path d="m301.1329 465.388c.0208 0 .0372.0157.0372.0157 88.729-63.6606 119.6737-148.5865 123.0646-165.6628-16.8266 7.105-107.3413 53.537-123.1018 165.6471z" fill="url(#c)"/><path d="m178.5865 217.0432c-1.9304 1.045-5.6369 3.0922-7.7255 6.0789s-.024.0154-.024.0319c0-.0111.011-.0148.0189-.0206-.2301.4367-.404.8858-.5398 1.3506-4.3398 15.9785 49.4142 44.53 120.0839 63.78 8.2575 2.2399 16.3808 4.2507 24.2861 6.0512 24.6532-43.1346 64.5484-72.0115 110.0425-74.6132-12.6372-6.29-58.9262-25.5842-123.5273-25.6413-.1393 0-.2796-.0007-.4189-.0007-35.5503 0-86.2399 4.454-122.1959 22.9832z" fill="url(#d)"/><g fill="#6e7071" fill-rule="evenodd"><path d="m272.4792 510.3844v-10.4846h5.804c3.5128 0 7.0169.826 7.0169 5.2416 0 4.418-3.5041 5.243-7.0169 5.243zm17.5292-5.243c0-4.0943-2.1269-9.1039-10.4753-9.1039h-11.4873v32.56h4.4334v-14.3498h4.9332l8.3021 14.3498h5.5282l-9.2684-14.8545c4.9356-.5538 8.0341-4.4664 8.0341-8.6016zm50.3113 23.4561h4.43v-32.561h-4.43zm-31.8649-24.2866c0-2.0224 1.4762-4.9666 6.3621-4.9666 2.5325 0 4.7083 1.1481 5.8066 2.8485l3.6005-3.2639c-2.442-2.9864-5.8584-3.7228-9.4071-3.7228-7.8472 0-11.0678 5.2863-11.0678 9.1048 0 12.6966 16.0906 8.0462 16.0906 15.5505 0 3.5859-3.5903 5.4267-6.4967 5.4267-2.6314 0-5.3509-1.1034-6.9161-3.4973l-3.6496 3.1269c2.2173 3.0853 6.2217 4.511 10.4244 4.511 6.2734 0 11.3495-3.7754 11.3495-10.0774 0-11.7267-16.0964-6.804-16.0964-15.0404zm146.8416 20.1494h-5.5878v-24.2883h6.6463c10.6063 0 12.7735 8.0012 12.7735 12.1418 0 8.0516-6.3638 12.1465-13.832 12.1465zm1.3842-28.4228h-11.3927v32.56h10.6519c11.6709 0 17.8935-7.9557 17.8935-16.2837 0-6.0251-3.362-16.2763-17.1527-16.2763zm-42.1291-.001-12.8707 32.561h4.8461l9.9531-26.4926h.0967l9.5983 26.4926h5.1139l-12.5916-32.561zm-41.4813 28.4238h-5.5783v-24.2883h6.6378c10.6155 0 12.7793 8.0012 12.7793 12.1418 0 8.0516-6.3586 12.1465-13.8388 12.1465zm1.3867-28.4228h-11.3857v32.56h10.6527c11.6647 0 17.8959-7.9557 17.8959-16.2837 0-6.0251-3.3712-16.2763-17.1629-16.2763zm119.3896 28.4228v-10.4399h15.5031v-4.1417h-15.5031v-9.7067h16.6617v-4.1355h-21.0824v32.561h21.9023v-4.1372zm-390.9131-8.4673c0 4.0518-2.0251 9.2951-8.208 9.2951-6.1812 0-8.2114-5.2433-8.2114-9.2951v-19.9565h-4.4198v20.6497c0 7.5483 5.4895 12.7425 12.6312 12.7425 7.1503 0 12.6424-5.1942 12.6424-12.7425v-20.6497h-4.4344zm45.3387 6.8116h-.0906l-17.9838-26.7681h-5.8176v32.561h4.4351v-26.7656h.0855l18.1767 26.7656h5.6247v-32.561h-4.43zm22.0486 5.7929h4.4207v-32.561h-4.4207zm64.7541-14.5771h15.4929v-4.1417h-15.4929v-9.7067h16.6488v-4.1355h-21.0788v32.561h21.9092v-4.1372h-17.4792zm-32.3757 8.5085h-.0974l-9.5888-26.4924h-5.1234l12.5916 32.561h4.156l12.8597-32.561h-4.8358z"/><path d="m352.9933 543.611-30.4154 73.7567h17.3966l18.5422-48.3354h.2084l18.2212 48.3354h18.5414l-29.48-73.7567zm-34.7285 0-18.5515 48.3388h-.1991l-18.2315-48.3388h-18.5498l29.4904 73.7567h13.0144l30.4144-73.7567zm100.3749 0h-16.2461v73.7567h32.7029l.006-.005h4.4333c8.1382 0 14.7466-6.5584 14.8452-14.6765v-.3176h-35.7414zm-258.7276 43.7592h31.9866v-15h-31.9866v-13.7506h33.8529v-15.0086h-50.1073v73.7567h32.6994l.01-.005h4.4305c8.1479 0 14.757-6.5584 14.8445-14.6765v-.3176h-35.7296zm-77.8179 29.9975h16.2442v-28.7516h30.7338v-14.9973h-30.7338v-14.9992h33.2341v-15.0086h-49.4783zm139.9464-29.9975h31.9865v-15h-31.9865v-13.7506h33.8632v-15.0086h-50.1073v73.7567h32.7002v-.005h4.443c8.137 0 14.7437-6.5584 14.8337-14.6765v-.3176h-35.7328zm255.4596 14.9983v-14.9983h31.9855v-15h-31.9855v-13.7506h33.8674v-15.0086h-50.1108v73.7567h32.6995l.01-.005h4.4337c8.1373 0 14.743-6.5584 14.834-14.6765v-.3176z"/></g></g></svg>